<mxfile host="Electron" agent="Mozilla/5.0 (Windows NT 10.0; Win64; x64) AppleWebKit/537.36 (KHTML, like Gecko) draw.io/26.2.2 Chrome/134.0.6998.178 Electron/35.1.2 Safari/537.36" version="26.2.2">
  <diagram name="Page-1" id="iXtBa0aQ1ontss0vXcKz">
    <mxGraphModel dx="1894" dy="1822" grid="1" gridSize="10" guides="1" tooltips="1" connect="1" arrows="1" fold="1" page="1" pageScale="1" pageWidth="850" pageHeight="1100" math="0" shadow="0">
      <root>
        <mxCell id="0" />
        <mxCell id="1" parent="0" />
        <mxCell id="oS7MKpakC91HziIEh_A6-2" value="&lt;h1 style=&quot;margin-top: 0px;&quot;&gt;Integration Model&amp;nbsp;&lt;span style=&quot;background-color: transparent; color: light-dark(rgb(0, 0, 0), rgb(255, 255, 255)); font-size: 12px; font-weight: normal;&quot;&gt;(how to tables are integrated).&lt;/span&gt;&lt;/h1&gt;" style="text;html=1;whiteSpace=wrap;overflow=hidden;rounded=0;" parent="1" vertex="1">
          <mxGeometry x="-90" y="-90" width="370" height="50" as="geometry" />
        </mxCell>
        <mxCell id="oS7MKpakC91HziIEh_A6-3" value="crm_cst_info" style="swimlane;fontStyle=0;childLayout=stackLayout;horizontal=1;startSize=30;horizontalStack=0;resizeParent=1;resizeParentMax=0;resizeLast=0;collapsible=1;marginBottom=0;whiteSpace=wrap;html=1;rounded=1;fillColor=#dae8fc;strokeColor=#6c8ebf;" parent="1" vertex="1">
          <mxGeometry x="230" y="310" width="140" height="90" as="geometry" />
        </mxCell>
        <mxCell id="oS7MKpakC91HziIEh_A6-4" value="cst_id" style="text;strokeColor=none;fillColor=none;align=left;verticalAlign=middle;spacingLeft=4;spacingRight=4;overflow=hidden;points=[[0,0.5],[1,0.5]];portConstraint=eastwest;rotatable=0;whiteSpace=wrap;html=1;rounded=1;" parent="oS7MKpakC91HziIEh_A6-3" vertex="1">
          <mxGeometry y="30" width="140" height="30" as="geometry" />
        </mxCell>
        <mxCell id="oS7MKpakC91HziIEh_A6-28" value="cst_key" style="text;strokeColor=none;fillColor=none;align=left;verticalAlign=middle;spacingLeft=4;spacingRight=4;overflow=hidden;points=[[0,0.5],[1,0.5]];portConstraint=eastwest;rotatable=0;whiteSpace=wrap;html=1;rounded=1;" parent="oS7MKpakC91HziIEh_A6-3" vertex="1">
          <mxGeometry y="60" width="140" height="30" as="geometry" />
        </mxCell>
        <mxCell id="oS7MKpakC91HziIEh_A6-7" value="Customer information" style="text;strokeColor=none;fillColor=none;align=left;verticalAlign=middle;spacingLeft=4;spacingRight=4;overflow=hidden;points=[[0,0.5],[1,0.5]];portConstraint=eastwest;rotatable=0;whiteSpace=wrap;html=1;" parent="1" vertex="1">
          <mxGeometry x="235" y="280" width="130" height="30" as="geometry" />
        </mxCell>
        <mxCell id="oS7MKpakC91HziIEh_A6-9" value="crm_prd_info" style="swimlane;fontStyle=0;childLayout=stackLayout;horizontal=1;startSize=30;horizontalStack=0;resizeParent=1;resizeParentMax=0;resizeLast=0;collapsible=1;marginBottom=0;whiteSpace=wrap;html=1;rounded=1;fillColor=#dae8fc;strokeColor=#6c8ebf;" parent="1" vertex="1">
          <mxGeometry x="230" y="110" width="140" height="60" as="geometry" />
        </mxCell>
        <mxCell id="oS7MKpakC91HziIEh_A6-10" value="prd_key" style="text;strokeColor=none;fillColor=none;align=left;verticalAlign=middle;spacingLeft=4;spacingRight=4;overflow=hidden;points=[[0,0.5],[1,0.5]];portConstraint=eastwest;rotatable=0;whiteSpace=wrap;html=1;rounded=1;" parent="oS7MKpakC91HziIEh_A6-9" vertex="1">
          <mxGeometry y="30" width="140" height="30" as="geometry" />
        </mxCell>
        <mxCell id="oS7MKpakC91HziIEh_A6-11" value="Current &amp;amp;&amp;nbsp; history product info" style="text;strokeColor=none;fillColor=none;align=left;verticalAlign=middle;spacingLeft=4;spacingRight=4;overflow=hidden;points=[[0,0.5],[1,0.5]];portConstraint=eastwest;rotatable=0;whiteSpace=wrap;html=1;" parent="1" vertex="1">
          <mxGeometry x="210" y="80" width="180" height="30" as="geometry" />
        </mxCell>
        <mxCell id="oS7MKpakC91HziIEh_A6-14" value="Records About sales &amp;amp; orders" style="text;strokeColor=none;fillColor=none;align=left;verticalAlign=middle;spacingLeft=4;spacingRight=4;overflow=hidden;points=[[0,0.5],[1,0.5]];portConstraint=eastwest;rotatable=0;whiteSpace=wrap;html=1;" parent="1" vertex="1">
          <mxGeometry x="-90" y="180" width="180" height="30" as="geometry" />
        </mxCell>
        <mxCell id="oS7MKpakC91HziIEh_A6-15" value="crm_sales_details" style="swimlane;fontStyle=0;childLayout=stackLayout;horizontal=1;startSize=30;horizontalStack=0;resizeParent=1;resizeParentMax=0;resizeLast=0;collapsible=1;marginBottom=0;whiteSpace=wrap;html=1;rounded=1;glass=0;shadow=0;fillColor=#dae8fc;strokeColor=#6c8ebf;" parent="1" vertex="1">
          <mxGeometry x="-70" y="210" width="140" height="90" as="geometry" />
        </mxCell>
        <mxCell id="oS7MKpakC91HziIEh_A6-17" value="prd_key" style="text;strokeColor=none;fillColor=none;align=left;verticalAlign=middle;spacingLeft=4;spacingRight=4;overflow=hidden;points=[[0,0.5],[1,0.5]];portConstraint=eastwest;rotatable=0;whiteSpace=wrap;html=1;rounded=1;glass=0;shadow=0;" parent="oS7MKpakC91HziIEh_A6-15" vertex="1">
          <mxGeometry y="30" width="140" height="30" as="geometry" />
        </mxCell>
        <mxCell id="oS7MKpakC91HziIEh_A6-16" value="cst_id" style="text;strokeColor=none;fillColor=none;align=left;verticalAlign=middle;spacingLeft=4;spacingRight=4;overflow=hidden;points=[[0,0.5],[1,0.5]];portConstraint=eastwest;rotatable=0;whiteSpace=wrap;html=1;rounded=1;glass=0;shadow=0;" parent="oS7MKpakC91HziIEh_A6-15" vertex="1">
          <mxGeometry y="60" width="140" height="30" as="geometry" />
        </mxCell>
        <mxCell id="oS7MKpakC91HziIEh_A6-20" style="edgeStyle=orthogonalEdgeStyle;rounded=0;orthogonalLoop=1;jettySize=auto;html=1;entryX=0;entryY=0.5;entryDx=0;entryDy=0;" parent="1" source="oS7MKpakC91HziIEh_A6-17" target="oS7MKpakC91HziIEh_A6-10" edge="1">
          <mxGeometry relative="1" as="geometry" />
        </mxCell>
        <mxCell id="oS7MKpakC91HziIEh_A6-22" style="edgeStyle=orthogonalEdgeStyle;rounded=0;orthogonalLoop=1;jettySize=auto;html=1;" parent="1" source="oS7MKpakC91HziIEh_A6-16" target="oS7MKpakC91HziIEh_A6-4" edge="1">
          <mxGeometry relative="1" as="geometry" />
        </mxCell>
        <mxCell id="oS7MKpakC91HziIEh_A6-23" value="erp_CUST_AZ12" style="swimlane;fontStyle=0;childLayout=stackLayout;horizontal=1;startSize=30;horizontalStack=0;resizeParent=1;resizeParentMax=0;resizeLast=0;collapsible=1;marginBottom=0;whiteSpace=wrap;html=1;rounded=1;fillColor=#ffe6cc;strokeColor=#d79b00;" parent="1" vertex="1">
          <mxGeometry x="650" y="270" width="140" height="60" as="geometry" />
        </mxCell>
        <mxCell id="oS7MKpakC91HziIEh_A6-24" value="CID" style="text;strokeColor=none;fillColor=none;align=left;verticalAlign=middle;spacingLeft=4;spacingRight=4;overflow=hidden;points=[[0,0.5],[1,0.5]];portConstraint=eastwest;rotatable=0;whiteSpace=wrap;html=1;rounded=1;" parent="oS7MKpakC91HziIEh_A6-23" vertex="1">
          <mxGeometry y="30" width="140" height="30" as="geometry" />
        </mxCell>
        <mxCell id="oS7MKpakC91HziIEh_A6-30" value="erp_LOC_A101" style="swimlane;fontStyle=0;childLayout=stackLayout;horizontal=1;startSize=30;horizontalStack=0;resizeParent=1;resizeParentMax=0;resizeLast=0;collapsible=1;marginBottom=0;whiteSpace=wrap;html=1;rounded=1;fillColor=#ffe6cc;strokeColor=#d79b00;" parent="1" vertex="1">
          <mxGeometry x="650" y="410" width="140" height="60" as="geometry" />
        </mxCell>
        <mxCell id="oS7MKpakC91HziIEh_A6-31" value="CID" style="text;strokeColor=none;fillColor=none;align=left;verticalAlign=middle;spacingLeft=4;spacingRight=4;overflow=hidden;points=[[0,0.5],[1,0.5]];portConstraint=eastwest;rotatable=0;whiteSpace=wrap;html=1;rounded=1;" parent="oS7MKpakC91HziIEh_A6-30" vertex="1">
          <mxGeometry y="30" width="140" height="30" as="geometry" />
        </mxCell>
        <mxCell id="oS7MKpakC91HziIEh_A6-25" value="Customer Birthdate" style="text;strokeColor=none;fillColor=none;align=left;verticalAlign=middle;spacingLeft=4;spacingRight=4;overflow=hidden;points=[[0,0.5],[1,0.5]];portConstraint=eastwest;rotatable=0;whiteSpace=wrap;html=1;" parent="1" vertex="1">
          <mxGeometry x="660" y="240" width="120" height="30" as="geometry" />
        </mxCell>
        <mxCell id="oS7MKpakC91HziIEh_A6-32" value="Location of customer" style="text;strokeColor=none;fillColor=none;align=left;verticalAlign=middle;spacingLeft=4;spacingRight=4;overflow=hidden;points=[[0,0.5],[1,0.5]];portConstraint=eastwest;rotatable=0;whiteSpace=wrap;html=1;" parent="1" vertex="1">
          <mxGeometry x="660" y="380" width="130" height="30" as="geometry" />
        </mxCell>
        <mxCell id="oS7MKpakC91HziIEh_A6-29" style="edgeStyle=orthogonalEdgeStyle;rounded=0;orthogonalLoop=1;jettySize=auto;html=1;" parent="1" source="oS7MKpakC91HziIEh_A6-24" target="oS7MKpakC91HziIEh_A6-28" edge="1">
          <mxGeometry relative="1" as="geometry" />
        </mxCell>
        <mxCell id="oS7MKpakC91HziIEh_A6-33" style="edgeStyle=orthogonalEdgeStyle;rounded=0;orthogonalLoop=1;jettySize=auto;html=1;entryX=1;entryY=0.5;entryDx=0;entryDy=0;" parent="1" source="oS7MKpakC91HziIEh_A6-31" target="oS7MKpakC91HziIEh_A6-28" edge="1">
          <mxGeometry relative="1" as="geometry" />
        </mxCell>
        <mxCell id="oS7MKpakC91HziIEh_A6-34" value="erp_PX_CAT_G1V2" style="swimlane;fontStyle=0;childLayout=stackLayout;horizontal=1;startSize=30;horizontalStack=0;resizeParent=1;resizeParentMax=0;resizeLast=0;collapsible=1;marginBottom=0;whiteSpace=wrap;html=1;rounded=1;fillColor=#ffe6cc;strokeColor=#d79b00;" parent="1" vertex="1">
          <mxGeometry x="650" y="110" width="140" height="60" as="geometry" />
        </mxCell>
        <mxCell id="oS7MKpakC91HziIEh_A6-35" value="ID" style="text;strokeColor=none;fillColor=none;align=left;verticalAlign=middle;spacingLeft=4;spacingRight=4;overflow=hidden;points=[[0,0.5],[1,0.5]];portConstraint=eastwest;rotatable=0;whiteSpace=wrap;html=1;rounded=1;" parent="oS7MKpakC91HziIEh_A6-34" vertex="1">
          <mxGeometry y="30" width="140" height="30" as="geometry" />
        </mxCell>
        <mxCell id="oS7MKpakC91HziIEh_A6-40" value="" style="rounded=1;whiteSpace=wrap;html=1;fillColor=none;strokeColor=default;dashed=1;" parent="1" vertex="1">
          <mxGeometry x="510" y="40" width="390" height="480" as="geometry" />
        </mxCell>
        <mxCell id="oS7MKpakC91HziIEh_A6-38" value="" style="rounded=1;whiteSpace=wrap;html=1;fillColor=none;dashed=1;" parent="1" vertex="1">
          <mxGeometry x="-90" y="60" width="520" height="370" as="geometry" />
        </mxCell>
        <mxCell id="oS7MKpakC91HziIEh_A6-36" value="Product categories" style="text;strokeColor=none;fillColor=none;align=left;verticalAlign=middle;spacingLeft=4;spacingRight=4;overflow=hidden;points=[[0,0.5],[1,0.5]];portConstraint=eastwest;rotatable=0;whiteSpace=wrap;html=1;" parent="1" vertex="1">
          <mxGeometry x="660" y="80" width="120" height="30" as="geometry" />
        </mxCell>
        <mxCell id="oS7MKpakC91HziIEh_A6-37" style="edgeStyle=orthogonalEdgeStyle;rounded=0;orthogonalLoop=1;jettySize=auto;html=1;" parent="1" source="oS7MKpakC91HziIEh_A6-35" target="oS7MKpakC91HziIEh_A6-10" edge="1">
          <mxGeometry relative="1" as="geometry" />
        </mxCell>
        <mxCell id="oS7MKpakC91HziIEh_A6-41" value="&lt;b&gt;&lt;font style=&quot;font-size: 23px;&quot;&gt;CRM&lt;/font&gt;&lt;/b&gt;" style="rounded=1;whiteSpace=wrap;html=1;fillColor=#dae8fc;strokeColor=#6c8ebf;" parent="1" vertex="1">
          <mxGeometry x="115" y="50" width="110" height="30" as="geometry" />
        </mxCell>
        <mxCell id="oS7MKpakC91HziIEh_A6-42" value="&lt;b&gt;&lt;font style=&quot;font-size: 23px;&quot;&gt;ERP&lt;/font&gt;&lt;/b&gt;" style="rounded=1;whiteSpace=wrap;html=1;fillColor=#fff2cc;strokeColor=#d6b656;" parent="1" vertex="1">
          <mxGeometry x="650" y="20" width="110" height="30" as="geometry" />
        </mxCell>
        <mxCell id="nz6a_HuY-5TbWxKmuVMK-1" value="Actor" style="shape=umlActor;verticalLabelPosition=bottom;verticalAlign=top;html=1;outlineConnect=0;" vertex="1" parent="1">
          <mxGeometry x="350" y="240" width="30" height="60" as="geometry" />
        </mxCell>
        <mxCell id="nz6a_HuY-5TbWxKmuVMK-2" value="Product" style="text;html=1;strokeColor=#b85450;fillColor=#f8cecc;align=center;verticalAlign=middle;whiteSpace=wrap;overflow=hidden;fontStyle=1" vertex="1" parent="1">
          <mxGeometry x="230" y="170" width="140" height="20" as="geometry" />
        </mxCell>
        <mxCell id="nz6a_HuY-5TbWxKmuVMK-5" value="Product" style="text;html=1;strokeColor=#b85450;fillColor=#f8cecc;align=center;verticalAlign=middle;whiteSpace=wrap;overflow=hidden;fontStyle=1" vertex="1" parent="1">
          <mxGeometry x="650" y="170" width="140" height="20" as="geometry" />
        </mxCell>
        <mxCell id="nz6a_HuY-5TbWxKmuVMK-6" value="Customer" style="text;html=1;strokeColor=#82b366;fillColor=#d5e8d4;align=center;verticalAlign=middle;whiteSpace=wrap;overflow=hidden;fontStyle=1" vertex="1" parent="1">
          <mxGeometry x="650" y="470" width="140" height="20" as="geometry" />
        </mxCell>
        <mxCell id="nz6a_HuY-5TbWxKmuVMK-7" value="Customer" style="text;html=1;strokeColor=#82b366;fillColor=#d5e8d4;align=center;verticalAlign=middle;whiteSpace=wrap;overflow=hidden;fontStyle=1" vertex="1" parent="1">
          <mxGeometry x="225" y="400" width="140" height="20" as="geometry" />
        </mxCell>
        <mxCell id="nz6a_HuY-5TbWxKmuVMK-8" value="Customer" style="text;html=1;strokeColor=#82b366;fillColor=#d5e8d4;align=center;verticalAlign=middle;whiteSpace=wrap;overflow=hidden;fontStyle=1" vertex="1" parent="1">
          <mxGeometry x="650" y="330" width="140" height="20" as="geometry" />
        </mxCell>
        <mxCell id="nz6a_HuY-5TbWxKmuVMK-11" value="Sales" style="text;html=1;strokeColor=#9673a6;fillColor=#e1d5e7;align=center;verticalAlign=middle;whiteSpace=wrap;overflow=hidden;fontStyle=1" vertex="1" parent="1">
          <mxGeometry x="-70" y="300" width="140" height="20" as="geometry" />
        </mxCell>
      </root>
    </mxGraphModel>
  </diagram>
</mxfile>
